# AST/ASF file generated using VICON BodyLanguage
# -----------------------------------------------
:version 1.10
:name VICON
:units
  mass 1.0
  length 0.45
  angle deg
:documentation
   .ast/.asf automatically generated from VICON data using
   VICON BodyBuilder and BodyLanguage model FoxedUp or BRILLIANT.MOD
:root
   order TX TY TZ RX RY RZ
   axis XYZ
   position 0 0 0  
   orientation 0 0 0 
:bonedata
  begin
     id 1 
     name lhipjoint
     direction 0.588788 -0.725889 0.355548 
     length 2.37778 
     axis 0 0 0  XYZ
  end
  begin
     id 2 
     name lfemur
     direction 0.34202 -0.939693 0  
     length 6.86393  
     axis 0 0 20  XYZ
    dof rx ry rz
    limits (-160.0 20.0)
           (-70.0 70.0)
           (-60.0 70.0)
  end
  begin
     id 3 
     name ltibia
     direction 0.34202 -0.939693 0   
     length 7.32851   
     axis 0 0 20   XYZ
    dof rx
    limits (-10.0 170.0)
  end
  begin
     id 4 
     name lfoot
     direction 0.0626533 -0.172138 0.983078   
     length 1.98929   
     axis -90 7.62852e-016 20   XYZ
    dof rx rz
    limits (-45.0 90.0)
           (-70.0 20.0)
  end
  begin
     id 5 
     name ltoes
     direction 1.53647e-011 -4.21734e-011 1   
     length 1.00479   
     axis -90 7.62852e-016 20   XYZ
    dof rx
    limits (-90.0 20.0)
  end
  begin
     id 6 
     name rhipjoint
     direction -0.59141 -0.724168 0.354705   
     length 2.38343  
     axis 0 0 0  XYZ 
  end
  begin
     id 7 
     name rfemur
     direction -0.34202 -0.939693 0   
     length 6.95589   
     axis 0 0 -20   XYZ
    dof rx ry rz
    limits (-160.0 20.0)
           (-70.0 70.0)
           (-70.0 60.0)
  end
  begin
     id 8 
     name rtibia
     direction -0.34202 -0.939693 0   
     length 7.32327   
     axis 0 0 -20   XYZ
    dof rx
    limits (-10.0 170.0)
 end
 begin
     id 9 
     name rfoot
     direction -0.0660461 -0.18146 0.981178   
     length 1.85272  
     axis -90 -7.62852e-016 -20   XYZ
    dof rx rz
    limits (-45.0 90.0)
           (-20.0 70.0)
  end
  begin
     id 10 
     name rtoes
     direction -1.53586e-011 -4.21988e-011 1   
     length 0.93746   
     axis -90 -7.62852e-016 -20   XYZ
    dof rx
    limits (-90.0 20.0)
  end
  begin
     id 11 
     name lowerback
     direction -0.0107982 0.991059 0.13299   
     length 1.98691   
     axis 0 0 0   XYZ
    dof rx ry rz
    limits (-20.0 45.0)
           (-30.0 30.0)
           (-30.0 30.0)
  end
  begin
     id 12 
     name upperback
     direction 0.0076296 0.999916 0.0104576   
     length 1.99501   
     axis 0 0 0   XYZ
    dof rx ry rz
    limits (-20.0 45.0)
           (-30.0 30.0)
           (-30.0 30.0)
  end
  begin
     id 13 
     name thorax
     direction 0.01176 0.998615 -0.0512909   
     length 2.03144   
     axis 0 0 0   XYZ
    dof rx ry rz
    limits (-20.0 45.0)
           (-30.0 30.0)
           (-30.0 30.0)
  end
  begin
     id 14 
     name lowerneck
     direction -0.0171909 0.999644 0.0204011   
     length 1.71818   
     axis 0 0 0   XYZ
    dof rx ry rz
    limits (-20.0 45.0)
           (-30.0 30.0)
           (-30.0 30.0)
  end
  begin
     id 15 
     name upperneck
     direction 0.0250902 0.997482 -0.0663316   
     length 1.66199   
     axis 0 0 0   XYZ
    dof rx ry rz
    limits (-20.0 45.0)
           (-30.0 30.0)
           (-30.0 30.0)
  end
  begin
     id 16
     name head
     direction 0.00881535 0.99956 -0.0283365  
     length 1.81545  
     axis 0 0 0   XYZ
    dof rx ry rz
    limits (-20.0 45.0)
           (-30.0 30.0)
           (-30.0 30.0)
  end
  begin
     id 17 
     name lclavicle
     direction 0.840411 0.486876 -0.238035  
     length 3.30409  
     axis 0 0 0   XYZ
    dof ry rz
    limits (-20.0 10.0)
           (0.0 20.0)
  end
  begin
     id 18 
     name lhumerus
     direction 1 -4.48977e-011 -5.16239e-027   
     length 4.62672   
     axis 180 -30 -90   XYZ
    dof rx ry rz
    limits (-60.0 90.0)
           (-90.0 90.0)
           (-90.0 90.0)
  end
  begin
     id 19
     name lradius
     direction 1 -4.48977e-011 -8.71171e-027   
     length 3.11018   
     axis 180 -30 -90   XYZ
    dof rx
    limits (-10.0 170.0)
  end
  begin
     id 20
     name lwrist
     direction 1 -4.48912e-011 -1.03764e-026   
     length 1.55509   
     axis 9.09556e-015 90 90   XYZ
    dof ry
    limits (-180.0 0.0)
 end
  begin
     id 21 
     name lhand
     direction 1 -4.49072e-011 -2.07528e-026   
     length 0.743834   
     axis 1.3242e-014 90 90   XYZ
    dof rx rz
    limits (-90.0 90.0)
           (-45.0 45.0)
  end
  begin
     id 22 
     name lfingers
     direction 1 -4.48909e-011 -4.15056e-026   
     length 0.599698   
     axis 2.64841e-014 90 90   XYZ
    dof rx
    limits (0.0 90.0)
  end
  begin
     id 23
     name lthumb
     direction 0.707107 -6.35013e-011 0.707107   
     length 0.86105   
     axis -90 45 2.85299e-015   XYZ
    dof rx rz
    limits (-45.0 45.0)
           (-45.0 45.0)
  end
  begin
     id 24 
     name rclavicle
     direction -0.835208 0.500237 -0.228452   
     length 3.2716  
     axis 0 0 0   XYZ 
    dof ry rz
    limits (-10.0 20.0)
           (-20.0 0.0)
  end
  begin
     id 25 
     name rhumerus
     direction -1 -4.48978e-011 -5.1953e-028  
     length 4.55919   
     axis 180 30 90   XYZ
    dof rx ry rz
    limits (-90.0 60.0)
           (-90.0 90.0)
           (-90.0 90.0)
  end
  begin
     id 26 
     name rradius
     direction -1 -4.48961e-011 -5.99546e-027   
     length 3.22748   
     axis 180 30 90   XYZ
    dof rx
    limits (-10.0 170.0)
  end
  begin
     id 27 
     name rwrist
     direction -1 -4.48986e-011 -1.03764e-026   
     length 1.61374   
     axis 9.09556e-015 -90 -90   XYZ
    dof ry
    limits (-180.0 0.0)
  end
  begin
     id 28
     name rhand
     direction -1 -4.4899e-011 -2.07528e-026   
     length 0.700882   
     axis 1.3242e-014 -90 -90   XYZ
    dof rx rz
    limits (-90.0 90.0)
           (-45.0 45.0)
  end
  begin
     id 29
     name rfingers
     direction -1 -4.48991e-011 -4.15056e-026   
     length 0.565069   
     axis 2.64841e-014 -90 -90   XYZ
    dof rx
    limits (0.0 90.0)
  end
  begin
     id 30
     name rthumb
     direction -0.707107 -6.34804e-011 0.707107   
     length 0.811329   
     axis -90 -45 -2.85299e-015   XYZ
    dof rx rz
    limits (-45.0 45.0)
           (-45.0 45.0)
  end
:hierarchy
  begin
    root lhipjoint rhipjoint lowerback
    lhipjoint lfemur
    lfemur ltibia
    ltibia lfoot
    lfoot ltoes
    rhipjoint rfemur
    rfemur rtibia
    rtibia rfoot
    rfoot rtoes
    lowerback upperback
    upperback thorax
    thorax lowerneck lclavicle rclavicle
    lowerneck upperneck
    upperneck head
    lclavicle lhumerus
    lhumerus lradius
    lradius lwrist
    lwrist lhand lthumb
    lhand lfingers
    rclavicle rhumerus
    rhumerus rradius
    rradius rwrist
    rwrist rhand rthumb
    rhand rfingers
  end

#!OML:ASF F:\VICON\USERDATA\INSTALL\SteveWalk\SteveWalk.ASF
:FULLY-SPECIFIED
:DEGREES
94
root -0.0328111 16.3466 -22.4547 17.3437 -0.929576 -1.29705
lowerback -13.6232 1.69977 0.711453
upperback -4.77645 2.10308 1.51011
thorax 2.57434 1.05348 1.50013
lowerneck -3.78577 -0.598492 -0.170454
upperneck 7.71768 -0.542909 -3.10715
head 3.12755 -0.387411 -1.00007
rclavicle -3.35449e-015 6.36111e-015
rhumerus -18.0799 6.35681 -84.7727
rradius 49.4295
rwrist -19.9301
rhand -14.327 -36.7711
rfingers 7.12502
rthumb 11.8137 -66.4179
lclavicle -3.35449e-015 6.36111e-015
lhumerus -53.1054 15.2356 74.8356
lradius 15.6337
lwrist -17.8902
lhand -18.6992 -16.7469
lfingers 7.12502
lthumb 7.59549 13.0967
rfemur -10.7693 -8.9385 23.6701
rtibia 24.9655
rfoot -25.9866 18.0764
rtoes 1.25924
lfemur -46.7134 2.38396 -18.7408
ltibia 18.6845
lfoot -8.99426 7.99129
ltoes -6.57918
95
root -0.0225693 16.3232 -22.2452 17.4448 -1.68925 -1.66156
lowerback -13.5589 1.99735 0.921276
upperback -4.79718 2.47031 1.50041
thorax 2.5197 1.23489 1.42575
lowerneck -3.75277 -0.524539 -0.171083
upperneck 7.59625 -0.455415 -3.0035
head 3.08097 -0.338763 -0.961232
rclavicle 2.10091e-014 6.75868e-015
rhumerus -17.2892 7.06654 -84.6641
rradius 50.2639
rwrist -19.9741
rhand -15.022 -36.8658
rfingers 7.12502
rthumb 11.1435 -66.5499
lclavicle 2.10091e-014 6.75868e-015
lhumerus -54.2219 16.4242 73.0489
lradius 15.2443
lwrist -18.9877
lhand -18.6594 -17.9052
lfingers 7.12502
lthumb 7.63388 11.937
rfemur -9.57856 -8.19946 23.6553
rtibia 23.9999
rfoot -25.836 18.0208
rtoes -0.813212
lfemur -46.7468 3.16008 -18.6016
ltibia 16.1132
lfoot -8.86472 7.59483
ltoes -5.47458
96
root -0.0087843 16.3049 -22.0204 17.5676 -2.53982 -1.95757
lowerback -13.7762 2.31499 1.08359
upperback -4.70226 2.86215 1.471
thorax 2.73859 1.42757 1.37698
lowerneck -3.66633 -0.512565 -0.288347
upperneck 7.32462 -0.449697 -2.87205
head 2.97174 -0.33121 -0.894363
rclavicle 4.71492e-014 1.86858e-014
rhumerus -16.2854 7.67439 -84.4378
rradius 50.8433
rwrist -20.141
rhand -15.6132 -34.7515
rfingers 7.12502
rthumb 10.5733 -64.4655
lclavicle 4.71492e-014 1.86858e-014
lhumerus -55.2303 17.4309 71.3942
lradius 14.9149
lwrist -19.7216
lhand -18.3506 -18.7109
lfingers 7.12502
lthumb 7.93194 11.1202
rfemur -8.42041 -7.70196 23.4776
rtibia 23.1527
rfoot -25.6027 18.5335
rtoes -2.136
lfemur -46.7663 4.41153 -18.93
ltibia 13.8807
lfoot -8.64186 6.70052
ltoes -8.08747
97
root 0.0071975 16.2795 -21.791 17.6733 -3.04974 -2.08582
lowerback -14.2684 2.50117 1.06554
upperback -4.4197 3.09276 1.48198
thorax 3.29497 1.53959 1.46821
lowerneck -3.78334 -0.465835 -0.441354
upperneck 7.00186 -0.392289 -2.75555
head 2.88479 -0.300382 -0.825692
rclavicle -1.99406e-014 -1.07344e-014
rhumerus -15.2607 8.08173 -83.9834
rradius 51.7523
rwrist -20.5253
rhand -15.5344 -32.8298
rfingers 7.12502
rthumb 10.6493 -62.5399
lclavicle -1.99406e-014 -1.07344e-014
lhumerus -55.8527 18.5962 69.8723
lradius 14.3553
lwrist -20.5557
lhand -18.1205 -18.9278
lfingers 7.12502
lthumb 8.15402 10.8949
rfemur -7.22354 -7.28336 23.2271
rtibia 22.3316
rfoot -25.1539 18.8518
rtoes -2.77326
lfemur -47.0251 5.59745 -19.5957
ltibia 12.2659
lfoot -8.75488 5.2525
ltoes -14.9161
98
root 0.0275145 16.2538 -21.5652 17.7466 -3.25061 -2.07997
lowerback -14.0305 2.58617 1.19646
upperback -4.58398 3.20239 1.30886
thorax 3.00999 1.5941 1.21511
lowerneck -3.93798 -0.376068 -0.388753
upperneck 7.12035 -0.282304 -2.59684
head 2.95531 -0.241137 -0.781404
rclavicle -4.92986e-014 -3.06128e-014
rhumerus -15.1687 8.1722 -83.9022
rradius 52.982
rwrist -20.6214
rhand -15.4658 -33.4251
rfingers 7.12502
rthumb 10.7154 -63.1318
lclavicle -4.92986e-014 -3.06128e-014
lhumerus -57.1816 19.9354 67.2636
lradius 13.6431
lwrist -22.258
lhand -18.1923 -19.9177
lfingers 7.12502
lthumb 8.08476 9.90766
rfemur -6.03203 -7.12504 22.8965
rtibia 21.5901
rfoot -24.6587 19.1015
rtoes -2.98107
lfemur -47.4647 6.95073 -20.8827
ltibia 11.1588
lfoot -8.97026 2.96155
ltoes -13.8029
99
root 0.0581627 16.2328 -21.3335 17.7419 -3.18497 -2.17123
lowerback -13.9587 2.6313 1.54855
upperback -4.6634 3.22208 1.18517
thorax 2.914 1.60222 0.886055
lowerneck -3.87664 -0.302908 -0.365729
upperneck 7.06858 -0.196788 -2.47521
head 2.92688 -0.192915 -0.742065
rclavicle -6.23687e-015 -1.98785e-015
rhumerus -14.9498 8.1707 -83.782
rradius 53.8923
rwrist -20.4509
rhand -15.4892 -34.3501
rfingers 7.12502
rthumb 10.6929 -64.058
lclavicle -6.23687e-015 -1.98785e-015
lhumerus -58.4736 20.9098 65.0871
lradius 13.3143
lwrist -23.5475
lhand -18.0527 -19.9187
lfingers 7.12502
lthumb 8.21943 9.90145
rfemur -4.87126 -7.43365 22.6301
rtibia 21.197
rfoot -24.3815 19.6783
rtoes -3.37318
lfemur -47.4726 7.93215 -22.0074
ltibia 10.1235
lfoot -9.3042 0.617433
ltoes -11.3551
100
root 0.073984 16.2051 -21.1047 17.7777 -3.45711 -2.19732
lowerback -13.8365 2.74006 1.50421
upperback -4.75687 3.38066 1.07785
thorax 2.75405 1.6806 0.815513
lowerneck -3.84796 -0.292712 -0.317126
upperneck 7.05165 -0.1927 -2.39915
head 2.91559 -0.186613 -0.725468
rclavicle -1.91703e-014 -2.78299e-015
rhumerus -14.6476 8.31845 -83.6308
rradius 54.5666
rwrist -20.2775
rhand -15.5074 -34.5134
rfingers 7.12502
rthumb 10.6754 -64.2222
lclavicle -1.91703e-014 -2.78299e-015
lhumerus -59.5149 21.2838 63.7412
lradius 13.2775
lwrist -24.1029
lhand -17.8016 -18.9545
lfingers 7.12502
lthumb 8.46183 10.856
rfemur -3.90331 -6.86268 22.3368
rtibia 20.969
rfoot -23.9932 19.6793
rtoes -5.57978
lfemur -47.4428 7.56031 -21.5873
ltibia 9.69202
lfoot -9.37868 0.46798
ltoes -7.132
101
root 0.0608672 16.1786 -20.8757 17.8762 -4.4193 -1.65689
lowerback -13.807 2.89424 0.265017
upperback -4.79579 3.75704 0.893295
thorax 2.63128 1.87335 1.37304
lowerneck -4.27005 -0.348771 -0.231749
upperneck 7.24213 -0.268601 -2.3546
head 3.05943 -0.224653 -0.73259
rclavicle 5.40446e-014 1.70955e-014
rhumerus -14.5044 8.4837 -83.4291
rradius 55.4066
rwrist -20.1552
rhand -15.724 -34.2549
rfingers 7.12502
rthumb 10.4664 -63.9744
lclavicle 5.40446e-014 1.70955e-014
lhumerus -60.7145 22.6061 61.0992
lradius 12.8489
lwrist -26.3077
lhand -17.8198 -18.5892
lfingers 7.12502
lthumb 8.44427 11.222
rfemur -3.35807 -5.06476 21.5088
rtibia 21.0556
rfoot -23.3392 18.7683
rtoes -8.50251
lfemur -47.4979 7.61094 -21.9857
ltibia 9.64492
lfoot -9.32664 0.562052
ltoes -5.05965
102
root 0.0720155 16.1498 -20.6344 17.8249 -4.33875 -1.72999
lowerback -13.7856 2.93831 0.2175
upperback -4.83022 3.82559 0.804714
thorax 2.58547 1.90771 1.31571
lowerneck -4.17457 -0.44999 -0.11779
upperneck 7.16041 -0.424024 -2.23602
head 3.01122 -0.29322 -0.718791
rclavicle 2.47922e-014 1.23246e-014
rhumerus -14.6396 8.42314 -83.3096
rradius 56.2137
rwrist -20.092
rhand -16.0406 -33.9496
rfingers 7.12502
rthumb 10.161 -63.6842
lclavicle 2.47922e-014 1.23246e-014
lhumerus -62.3562 24.3823 57.1795
lradius 12.187
lwrist -29.6448
lhand -17.7962 -18.2617
lfingers 7.12502
lthumb 8.46701 11.5486
rfemur -2.71814 -4.70836 21.4192
rtibia 21.549
rfoot -22.0858 19.3498
rtoes -4.69081
lfemur -47.1839 6.85172 -21.4641
ltibia 9.74089
lfoot -9.32671 0.978139
ltoes -6.57189
